PathFileType	4	(X/Y/Z)	 2.6Hz3min.trc
DataRate	CameraRate	NumFrames	NumMarkers	Units	OrigDataRate	OrigDataStartFrame	OrigNumFrames
200	200	10	39	m	200	751	1000
Frame#	Time	C7			LSH			RSH			MAN			RASI			LASI			HIPR			HIPL			RPSI			LPSI			COX			RTHI1			RTHI2			RTHI3			RTHI4			RLKN			RMKN			RSHA1			RSHA2			RSHA3			RSHA4			RHEEL			RMET5			RMET1			RTOE			LTHI1			LTHI2			LTHI3			LTHI4			LLKN			LMKN			LSHA1			LSHA2			LSHA3			LSHA4			LHEEL			LMET5			LMET1			LTOE			
		X1	Y1	Z1	X2	Y2	Z2	X3	Y3	Z3	X4	Y4	Z4	X5	Y5	Z5	X6	Y6	Z6	X7	Y7	Z7	X8	Y8	Z8	X9	Y9	Z9	X10	Y10	Z10	X11	Y11	Z11	X12	Y12	Z12	X13	Y13	Z13	X14	Y14	Z14	X15	Y15	Z15	X16	Y16	Z16	X17	Y17	Z17	X18	Y18	Z18	X19	Y19	Z19	X20	Y20	Z20	X21	Y21	Z21	X22	Y22	Z22	X23	Y23	Z23	X24	Y24	Z24	X25	Y25	Z25	X26	Y26	Z26	X27	Y27	Z27	X28	Y28	Z28	X29	Y29	Z29	X30	Y30	Z30	X31	Y31	Z31	X32	Y32	Z32	X33	Y33	Z33	X34	Y34	Z34	X35	Y35	Z35	X36	Y36	Z36	X37	Y37	Z37	X38	Y38	Z38	X39	Y39	Z39	
751	3.7550	-0.315054	1.684894	-0.513551	-0.289854	1.652690	-0.752237	-0.237327	1.660077	-0.309957	-0.177102	1.615304	-0.533274	-0.179452	1.154413	-0.405637	-0.198417	1.163907	-0.641369	-0.241517	1.216911	-0.354365	-0.270837	1.231326	-0.678498	-0.362631	1.193586	-0.448970	-0.371203	1.200585	-0.559532	-0.376427	1.194067	-0.505223	-0.257269	0.921502	-0.316809	-0.244501	0.864433	-0.305720	-0.180448	0.875743	-0.310692	-0.186425	0.935640	-0.323455	-0.220403	0.573598	-0.327037	-0.202997	0.562376	-0.430029	-0.303526	0.452623	-0.284283	-0.323835	0.414514	-0.288009	-0.254282	0.431990	-0.304427	-0.269021	0.394509	-0.305296	-0.442486	0.142914	-0.354827	-0.293467	0.033306	-0.295286	-0.254300	0.043574	-0.384882	-0.223117	0.030426	-0.382716	-0.280905	0.907130	-0.720317	-0.266423	0.848886	-0.731411	-0.203041	0.860543	-0.740483	-0.209568	0.919652	-0.731904	-0.239235	0.581004	-0.711645	-0.205443	0.570262	-0.619704	-0.375946	0.441568	-0.722746	-0.389001	0.403358	-0.717277	-0.331174	0.387501	-0.735995	-0.325411	0.431165	-0.739112	-0.469788	0.147979	-0.666785	-0.329301	0.037961	-0.733965	-0.281005	0.041340	-0.656728	-0.245212	0.028903	-0.667477	
752	3.7600	-0.314992	1.688033	-0.513683	-0.289616	1.656205	-0.752097	-0.237194	1.663830	-0.310350	-0.177347	1.618831	-0.533350	-0.179136	1.157754	-0.405754	-0.198172	1.167310	-0.641478	-0.241109	1.220775	-0.354564	-0.270469	1.235288	-0.678349	-0.362192	1.197347	-0.448866	-0.370905	1.204250	-0.559543	-0.376090	1.197907	-0.505179	-0.257160	0.924554	-0.316646	-0.244413	0.867489	-0.305594	-0.180362	0.878738	-0.310634	-0.186303	0.938660	-0.323341	-0.220426	0.576706	-0.326788	-0.202826	0.565460	-0.429773	-0.302794	0.455334	-0.283917	-0.322870	0.417117	-0.287581	-0.253431	0.434987	-0.304058	-0.267940	0.397414	-0.304845	-0.440244	0.145499	-0.353887	-0.292026	0.034448	-0.295660	-0.253588	0.044102	-0.384759	-0.222646	0.030712	-0.382139	-0.281415	0.910362	-0.720252	-0.266911	0.852141	-0.731446	-0.203569	0.863863	-0.740709	-0.210118	0.922982	-0.732052	-0.239213	0.584072	-0.711847	-0.205024	0.573398	-0.620123	-0.375221	0.444086	-0.722958	-0.388020	0.405739	-0.717469	-0.330171	0.390260	-0.736427	-0.324693	0.433968	-0.739507	-0.467588	0.150290	-0.667696	-0.327826	0.039182	-0.734002	-0.280516	0.041665	-0.656856	-0.244815	0.029251	-0.668008	
753	3.7650	-0.314914	1.690980	-0.513802	-0.289393	1.659547	-0.751934	-0.237063	1.667361	-0.310754	-0.177571	1.622164	-0.533434	-0.178823	1.160898	-0.405907	-0.197950	1.170534	-0.641589	-0.240655	1.224442	-0.354783	-0.270106	1.239106	-0.678176	-0.361772	1.200917	-0.448755	-0.370643	1.207721	-0.559549	-0.375756	1.201564	-0.505103	-0.257020	0.927421	-0.316528	-0.244294	0.870355	-0.305510	-0.180244	0.881546	-0.310659	-0.186148	0.941487	-0.323304	-0.220446	0.579587	-0.326625	-0.202795	0.568341	-0.429650	-0.302038	0.457821	-0.283589	-0.321872	0.419505	-0.287166	-0.252573	0.437754	-0.303778	-0.266856	0.400102	-0.304469	-0.438115	0.147814	-0.352976	-0.290467	0.035684	-0.296017	-0.252798	0.044753	-0.384599	-0.222026	0.031107	-0.381480	-0.281926	0.913362	-0.720128	-0.267392	0.855160	-0.731412	-0.204088	0.866960	-0.740871	-0.210669	0.926082	-0.732149	-0.239138	0.586927	-0.711951	-0.204626	0.576335	-0.620414	-0.374440	0.446353	-0.723130	-0.386993	0.407909	-0.717650	-0.329116	0.392792	-0.736811	-0.323907	0.436536	-0.739840	-0.465480	0.152374	-0.668613	-0.326281	0.040414	-0.734017	-0.279949	0.042088	-0.656991	-0.244322	0.029665	-0.668572	
754	3.7700	-0.314821	1.693725	-0.513904	-0.289188	1.662698	-0.751749	-0.236930	1.670651	-0.311165	-0.177766	1.625282	-0.533525	-0.178506	1.163837	-0.406093	-0.197755	1.173567	-0.641702	-0.240157	1.227887	-0.355018	-0.269743	1.242721	-0.678008	-0.361371	1.204282	-0.448636	-0.370417	1.210988	-0.559547	-0.375426	1.205010	-0.505000	-0.256829	0.930096	-0.316418	-0.244140	0.873021	-0.305472	-0.180091	0.884144	-0.310765	-0.185956	0.944109	-0.323339	-0.220452	0.582230	-0.326554	-0.202901	0.570996	-0.429654	-0.301269	0.460063	-0.283313	-0.320861	0.421656	-0.286781	-0.251717	0.440278	-0.303590	-0.265774	0.402541	-0.304181	-0.436126	0.149851	-0.352100	-0.288810	0.037008	-0.296336	-0.251913	0.045533	-0.384382	-0.221234	0.031649	-0.380735	-0.282417	0.916118	-0.719947	-0.267855	0.857933	-0.731308	-0.204590	0.869808	-0.740970	-0.211208	0.928932	-0.732196	-0.239017	0.589537	-0.711959	-0.204268	0.579038	-0.620567	-0.373622	0.448375	-0.723285	-0.385940	0.409848	-0.717838	-0.328024	0.395095	-0.737137	-0.323067	0.438858	-0.740107	-0.463491	0.154222	-0.669525	-0.324681	0.041675	-0.734032	-0.279299	0.042607	-0.657131	-0.243699	0.030177	-0.669162	
755	3.7750	-0.314715	1.696249	-0.513984	-0.289002	1.665645	-0.751544	-0.236797	1.673681	-0.311578	-0.177926	1.628170	-0.533617	-0.178190	1.166568	-0.406309	-0.197590	1.176384	-0.641817	-0.239614	1.231085	-0.355267	-0.269387	1.246105	-0.677833	-0.360991	1.207430	-0.448508	-0.370226	1.214025	-0.559540	-0.375100	1.208226	-0.504874	-0.256600	0.932562	-0.316361	-0.243944	0.875483	-0.305480	-0.179900	0.886527	-0.310948	-0.185722	0.946510	-0.323445	-0.220453	0.584634	-0.326564	-0.203123	0.573415	-0.429777	-0.300491	0.462064	-0.283087	-0.319844	0.423563	-0.286408	-0.250875	0.442544	-0.303486	-0.264710	0.404720	-0.303979	-0.434302	0.151607	-0.351267	-0.287061	0.038428	-0.296583	-0.250909	0.046468	-0.384093	-0.220234	0.032395	-0.379911	-0.282875	0.918606	-0.719716	-0.268284	0.860442	-0.731135	-0.205064	0.872383	-0.740998	-0.211717	0.931517	-0.732191	-0.238850	0.591895	-0.711877	-0.203954	0.581496	-0.620584	-0.372783	0.450155	-0.723421	-0.384890	0.411552	-0.718010	-0.326923	0.397144	-0.737395	-0.322195	0.440923	-0.740305	-0.461639	0.155809	-0.670388	-0.323031	0.042993	-0.734090	-0.278519	0.043241	-0.657296	-0.242906	0.030839	-0.669778	
756	3.7800	-0.314596	1.698542	-0.514043	-0.288838	1.668366	-0.751320	-0.236660	1.676438	-0.311986	-0.178053	1.630810	-0.533712	-0.177876	1.169087	-0.406549	-0.197453	1.178964	-0.641932	-0.239046	1.234013	-0.355519	-0.269043	1.249220	-0.677650	-0.360628	1.210345	-0.448374	-0.370062	1.216817	-0.559526	-0.374785	1.211194	-0.504749	-0.256319	0.934810	-0.316340	-0.243705	0.877716	-0.305528	-0.179662	0.888673	-0.311201	-0.185438	0.948675	-0.323613	-0.220424	0.586780	-0.326657	-0.203451	0.575597	-0.430009	-0.299703	0.463823	-0.282903	-0.318837	0.425209	-0.286029	-0.250060	0.444541	-0.303476	-0.263680	0.406628	-0.303868	-0.432656	0.153058	-0.350489	-0.285230	0.039949	-0.296700	-0.249718	0.047593	-0.383721	-0.218973	0.033408	-0.379017	-0.283288	0.920816	-0.719432	-0.268669	0.862662	-0.730897	-0.205492	0.874671	-0.740956	-0.212181	0.933807	-0.732128	-0.238629	0.593995	-0.711710	-0.203695	0.583680	-0.620461	-0.371943	0.451680	-0.723519	-0.383870	0.413039	-0.718179	-0.325840	0.398930	-0.737582	-0.321311	0.442726	-0.740435	-0.459930	0.157119	-0.671172	-0.321321	0.044399	-0.734247	-0.277547	0.044034	-0.657540	-0.241879	0.031703	-0.670433	
757	3.7850	-0.314468	1.700601	-0.514080	-0.288695	1.670849	-0.751082	-0.236519	1.678899	-0.312386	-0.178149	1.633194	-0.533808	-0.177567	1.171379	-0.406812	-0.197340	1.181297	-0.642048	-0.238459	1.236654	-0.355777	-0.268728	1.252002	-0.677475	-0.360281	1.213008	-0.448236	-0.369922	1.219347	-0.559509	-0.374486	1.213900	-0.504632	-0.255978	0.936837	-0.316326	-0.243421	0.879716	-0.305617	-0.179375	0.890578	-0.311521	-0.185100	0.950598	-0.323842	-0.220367	0.588659	-0.326826	-0.203864	0.577537	-0.430335	-0.298919	0.465344	-0.282761	-0.317858	0.426588	-0.285655	-0.249278	0.446271	-0.303546	-0.262713	0.408282	-0.303854	-0.431171	0.154186	-0.349789	-0.283271	0.041604	-0.296650	-0.248282	0.048919	-0.383248	-0.217406	0.034724	-0.378064	-0.283646	0.922732	-0.719101	-0.268997	0.864585	-0.730597	-0.205860	0.876662	-0.740839	-0.212584	0.935798	-0.732007	-0.238360	0.595824	-0.711463	-0.203495	0.585587	-0.620202	-0.371120	0.452973	-0.723582	-0.382901	0.414318	-0.718322	-0.324802	0.400462	-0.737690	-0.320438	0.444273	-0.740491	-0.458359	0.158121	-0.671833	-0.319528	0.045904	-0.734544	-0.276314	0.045009	-0.657916	-0.240547	0.032823	-0.671161	
758	3.7900	-0.314335	1.702410	-0.514095	-0.288574	1.673076	-0.750837	-0.236370	1.681056	-0.312770	-0.178209	1.635304	-0.533898	-0.177265	1.173431	-0.407090	-0.197248	1.183367	-0.642164	-0.237863	1.239006	-0.356037	-0.268433	1.254415	-0.677324	-0.359952	1.215417	-0.448091	-0.369802	1.221609	-0.559492	-0.374206	1.216324	-0.504522	-0.255571	0.938645	-0.316305	-0.243089	0.881475	-0.305749	-0.179037	0.892230	-0.311904	-0.184711	0.952275	-0.324125	-0.220284	0.590276	-0.327064	-0.204349	0.579223	-0.430738	-0.298142	0.466613	-0.282651	-0.316936	0.427713	-0.285333	-0.248544	0.447744	-0.303689	-0.261807	0.409661	-0.303924	-0.429825	0.154960	-0.349179	-0.281161	0.043392	-0.296389	-0.246550	0.050445	-0.382649	-0.215502	0.036360	-0.377065	-0.283933	0.924344	-0.718742	-0.269257	0.866204	-0.730248	-0.206156	0.878340	-0.740651	-0.212917	0.937479	-0.731827	-0.238046	0.597373	-0.711145	-0.203360	0.587205	-0.619818	-0.370340	0.454050	-0.723617	-0.382001	0.415387	-0.718443	-0.323827	0.401750	-0.737719	-0.319599	0.445574	-0.740470	-0.456909	0.158778	-0.672339	-0.317597	0.047550	-0.735045	-0.274757	0.046162	-0.658466	-0.238853	0.034241	-0.672009	
759	3.7950	-0.314201	1.703962	-0.514092	-0.288473	1.675032	-0.750590	-0.236211	1.682901	-0.313132	-0.178239	1.637136	-0.533981	-0.176977	1.175226	-0.407372	-0.197174	1.185156	-0.642277	-0.237271	1.241069	-0.356295	-0.268186	1.256427	-0.677199	-0.359640	1.217558	-0.447947	-0.369701	1.223579	-0.559469	-0.373944	1.218459	-0.504415	-0.255116	0.940215	-0.316316	-0.242704	0.882994	-0.305919	-0.178651	0.893626	-0.312344	-0.184268	0.953704	-0.324460	-0.220195	0.591638	-0.327355	-0.204894	0.580660	-0.431204	-0.297383	0.467665	-0.282555	-0.316068	0.428620	-0.285034	-0.247869	0.448970	-0.303886	-0.260985	0.410804	-0.304058	-0.428585	0.155385	-0.348689	-0.278892	0.045293	-0.295900	-0.244500	0.052154	-0.381907	-0.213243	0.038294	-0.376036	-0.284149	0.925648	-0.718367	-0.269439	0.867516	-0.729867	-0.206369	0.879701	-0.740392	-0.213170	0.938843	-0.731592	-0.237698	0.598647	-0.710767	-0.203279	0.588543	-0.619334	-0.369619	0.454925	-0.723605	-0.381187	0.416260	-0.718515	-0.322939	0.402791	-0.737675	-0.318816	0.446638	-0.740388	-0.455548	0.159061	-0.672649	-0.315508	0.049315	-0.735758	-0.272826	0.047510	-0.659236	-0.236774	0.035945	-0.672996	
760	3.8000	-0.314069	1.705253	-0.514076	-0.288393	1.676703	-0.750347	-0.236039	1.684432	-0.313463	-0.178245	1.638685	-0.534059	-0.176704	1.176746	-0.407651	-0.197120	1.186650	-0.642383	-0.236694	1.242839	-0.356545	-0.267993	1.258044	-0.677118	-0.359349	1.219417	-0.447802	-0.369616	1.225254	-0.559439	-0.373708	1.220293	-0.504308	-0.254611	0.941539	-0.316343	-0.242272	0.884265	-0.306115	-0.178213	0.894770	-0.312840	-0.183781	0.954885	-0.324841	-0.220091	0.592744	-0.327696	-0.205502	0.581856	-0.431715	-0.296655	0.468500	-0.282475	-0.315261	0.429317	-0.284758	-0.247257	0.449969	-0.304133	-0.260250	0.411721	-0.304253	-0.427413	0.155464	-0.348316	-0.276484	0.047267	-0.295195	-0.242154	0.053991	-0.381027	-0.210671	0.040440	-0.374979	-0.284286	0.926653	-0.717993	-0.269540	0.868521	-0.729468	-0.206486	0.880747	-0.740063	-0.213336	0.939891	-0.731307	-0.237326	0.599660	-0.710340	-0.203260	0.589601	-0.618763	-0.368968	0.455611	-0.723531	-0.380461	0.416949	-0.718530	-0.322146	0.403607	-0.737565	-0.318111	0.447476	-0.740245	-0.454245	0.158972	-0.672764	-0.313266	0.051149	-0.736653	-0.270528	0.049012	-0.660227	-0.234323	0.037867	-0.674125	
